<?xml version="1.0"?>
<!-- Copyright © 2015-2017 Metreeca. All rights reserved. -->

<!DOCTYPE svg PUBLIC "-//W3C//DTD SVG 1.1//EN" "http://www.w3.org/Graphics/SVG/1.1/DTD/svg11.dtd">
<svg xmlns="http://www.w3.org/2000/svg" version="1.1" viewBox="0 0 32 32" width="32pt" height="32pt">
	<metadata xmlns:dc="http://purl.org/dc/elements/1.1/">
		<dc:date>2015-10-09 08:30Z</dc:date><!-- Produced by OmniGraffle Professional 5.4.4 -->
	</metadata>
	<defs></defs>
	<g stroke="none" stroke-opacity="1" stroke-dasharray="none" fill="none" fill-opacity="1">
		<title>icon-32</title>
		<g>
			<title>Layer 1</title>
			<path d="M 29.236082 16 L 29.092102 14.570608 C 30.034043 14.194178 30.969046 13.757034 31.892774 13.259175 C 31.719304 12.0648344 31.247466 10.9208 30.901393 9.762888 C 29.852767 9.847021 28.820621 9.988399 27.818832 10.183553 L 27.133626 8.9206917 C 26.920258 8.489619 26.550767 8.16523 26.266276 7.782729 C 26.85087 6.9587467 27.396433 6.0870602 27.899496 5.1720063 C 27.13536 4.2317992 26.094541 3.5613379 25.180355 2.772917 C 24.360709 3.3835312 23.554074 4.080013 22.819429 4.7808316 L 21.557435 4.0956253 C 21.154117 3.8250122 20.659728 3.7695018 20.21391 3.6021033 C 20.259012 2.5951103 20.24687 1.5690356 20.174012 .52995067 C 19.027376 .100612566 17.782729 .16653114 16.586654 2842171e-20 C 16.227571 .92719683 15.929203 1.9133734 15.690681 2.92904 L 14.260422 3.07302 C 13.781645 3.1016425 13.308939 3.1692958 12.857917 3.3453678 C 12.355722 2.4814875 11.793679 1.6323521 11.172657 .80490053 C 9.9817857 1.0945953 8.931425 1.7130157 7.8680544 2.3010788 C 8.087494 3.3072044 8.331219 4.2404727 8.6772917 5.2188432 L 7.569686 6.1321624 C 7.2053993 6.440939 6.8072857 6.7158888 6.529734 7.113135 C 5.6415677 6.6603784 4.7117689 6.2518567 3.7455413 5.8919065 C 2.9120182 6.7852767 2.336098 7.854719 1.7775248 8.9354367 C 2.4991598 9.6622757 3.231203 10.327533 4.0222258 10.9511574 L 3.5954898 12.322437 C 3.484469 12.785602 3.2433458 13.222746 3.239009 13.708462 C 2.2519651 13.809075 1.2536456 13.969534 .25098932 14.1907085 C .059305036 15.397192 .059305036 16.602808 .25098932 17.810159 C 1.2536456 18.031333 2.2519651 18.191793 3.239009 18.292405 C 3.2442132 18.777254 3.4853364 19.215265 3.5954898 19.67843 L 4.0222258 21.04971 C 3.231203 21.673334 2.5000271 22.337724 1.7775248 23.065431 C 2.3369654 24.145281 2.9120182 25.214723 3.7455413 26.108093 C 4.7135036 25.748143 5.642435 25.339622 6.530601 24.886865 C 6.8072857 25.284111 7.2062666 25.559061 7.571421 25.867838 L 8.6790264 26.782024 C 8.3320865 27.759527 8.087494 28.692796 7.868922 29.698921 C 8.9322925 30.287852 9.982653 30.905405 11.1743915 31.1951 C 11.7945465 30.367648 12.356589 29.51938 12.859652 28.6555 C 13.3098065 28.830704 13.781645 28.898357 14.2621564 28.92698 L 15.690681 29.07096 C 15.929203 30.086627 16.228438 31.072803 16.588388 32 C 17.783596 31.833469 19.028243 31.900255 20.174879 31.470917 C 20.247737 30.430097 20.25988 29.40489 20.214777 28.397897 C 20.660595 28.22963 21.154117 28.17412 21.557435 27.903507 L 22.819429 27.219168 C 23.554074 27.91912 24.361576 28.615601 25.182089 29.226216 C 26.095408 28.437795 27.13536 27.767333 27.899496 26.826259 C 27.396433 25.912072 26.85087 25.040386 26.266276 24.216404 C 26.550767 23.833903 26.921125 23.509514 27.133626 23.078441 L 27.818832 21.816447 C 28.820621 22.010733 29.852767 22.152111 30.901393 22.235377 C 31.247466 21.078333 31.719304 19.934298 31.892774 18.739958 C 30.969046 18.242099 30.034043 17.805822 29.092102 17.428525 L 29.236082 16 Z M 20.253808 25.055998 C 18.519109 25.711715 16.59099 26.236461 14.7062395 25.827072 C 12.8561826 25.532173 11.005258 24.827018 9.622703 23.502575 C 8.2080555 22.264 7.0475416 20.642923 6.6008565 18.796335 C 6.0223343 16.997452 6.0223343 15.003415 6.6008565 13.2036646 C 7.0475416 11.357077 8.2080555 9.736868 9.622703 8.497425 C 11.005258 7.172982 12.8561826 6.4678267 14.705372 6.172928 C 16.590123 5.7635388 18.519109 6.2882854 20.253808 6.9440017 C 22.004987 7.709004 23.406624 9.0837535 24.50122 10.6163604 C 25.548978 12.222692 25.973112 14.105708 26.104082 16 C 25.973112 17.893424 25.548978 19.776441 24.50122 21.382772 C 23.406624 22.915379 22.005855 24.290996 20.253808 25.055998" fill="#2c3642"/>
			<circle cx="16.000001" cy="16" r="5.625009" fill="#d33b06"/>
		</g>
	</g>
</svg>
